<svg width="44" height="35" viewBox="0 0 44 35" fill="none" xmlns="http://www.w3.org/2000/svg">
<path d="M37.1772 16.1121C32.9055 11.7069 26.676 9.29311 19.5565 8.8707V2.41379C19.5565 1.44828 18.8445 0.543096 17.9546 0.181027C17.0647 -0.181042 15.9967 7.33754e-06 15.2848 0.724145L0.689876 15.8104C-0.200058 16.7759 -0.259387 18.2845 0.689876 19.1896L15.2848 34.2759C15.9374 35 17.0647 35.181 17.9546 34.819C18.8445 34.4569 19.5565 33.5517 19.5565 32.5862V26.069C24.3028 25.9483 35.4566 26.431 39.5503 33.7931C39.9656 34.5776 40.7369 35 41.5675 35C41.7455 35 41.9235 35 42.1608 34.9397C43.2287 34.6379 44 33.7328 44 32.5862C43.9407 32.2241 43.9407 22.9914 37.1772 16.1121ZM16.8273 21.3621C15.6408 21.4828 14.8102 22.5086 14.8102 23.7759V26.6724L5.91082 17.5L14.8102 8.32758V11.2241C14.8102 12.5517 15.7594 13.6379 17.0647 13.6379C29.8204 13.6379 35.2193 19.8535 37.5331 25.1638C29.1678 20.0948 17.4206 21.3017 16.8273 21.3621Z" fill="#555555"/>
</svg>
