<svg width="60" height="62" viewBox="0 0 60 62" fill="none" xmlns="http://www.w3.org/2000/svg">
<path d="M55.1726 12.1887C55.7443 12.6819 56.3876 12.8933 57.1022 12.8933C57.8884 12.8933 58.6745 12.6114 59.2462 11.9773C60.3182 10.85 60.2468 9.01825 59.0318 7.96143L55.3156 4.64993L51.5993 1.3386C50.4558 0.281784 48.5977 0.352273 47.5971 1.55C46.5966 2.74773 46.5966 4.50906 47.8115 5.56587L49.3838 6.97497L46.5251 10.1454C43.2376 7.74997 39.4499 5.98864 35.3048 5.07273C35.2333 4.15682 34.8759 3.17045 34.1613 2.25455C33.4466 1.26818 31.9458 0.140943 29.2301 3.44016e-05C29.1586 3.44016e-05 29.1586 3.44016e-05 29.0871 3.44016e-05C26.5858 3.44016e-05 25.1564 1.05689 24.3703 1.9728C23.5127 2.95916 23.1553 4.15682 23.0124 5.07273C9.86246 7.82045 4.36201e-06 19.4454 4.36201e-06 33.184C4.36201e-06 49.0363 13.0785 62 29.1586 62C45.2387 62 58.3172 49.1068 58.3172 33.184C58.3172 25.7863 55.4585 19.0227 50.8131 13.8795L53.6718 10.7091L55.1726 12.1887ZM29.0871 56.2931C16.1516 56.2931 5.6459 45.9363 5.6459 33.184C5.6459 20.4317 16.1516 10.0751 29.0871 10.0751C42.0227 10.0751 52.5283 20.4317 52.5283 33.184C52.5283 45.9363 42.0227 56.2931 29.0871 56.2931ZM34.0898 33.184C34.0898 35.8613 31.8029 38.0455 29.1586 38.0455C26.4428 38.0455 24.2988 35.8613 24.2988 33.184C24.2988 31.5636 25.0135 30.0841 26.4428 29.2387V17.8251C26.4428 16.2751 27.7292 15.0069 29.3015 15.0069C30.8738 15.0069 32.1602 16.2751 32.1602 17.8251V29.2387C33.5181 30.0841 34.0898 31.5636 34.0898 33.184Z" fill="#333333"/>
</svg>
