<svg width="41" height="35" viewBox="0 0 41 35" fill="none" xmlns="http://www.w3.org/2000/svg">
<path d="M40.4569 15.5069L33.7222 22.3125C33.3318 22.7014 32.8438 22.8958 32.307 22.8958C31.7701 22.8958 31.2822 22.7014 30.8917 22.3125L24.157 15.5069C23.425 14.7292 23.425 13.5139 24.157 12.7361C24.9379 12.0069 26.1579 12.0069 26.9387 12.7361L30.6965 16.5278C30.2085 9.47916 24.401 3.88889 17.3247 3.88889C9.90682 3.88889 3.90417 10.0139 3.90417 17.5C3.90417 24.9861 9.90682 31.1111 17.3247 31.1111C20.0577 31.1111 22.693 30.2847 24.8891 28.7292C25.7675 28.0972 26.9875 28.3403 27.622 29.2153C28.2564 30.0903 28.0124 31.3056 27.1339 31.9375C24.2546 33.9306 20.8385 35 17.3247 35C7.75953 35 0 27.1736 0 17.5C0 7.82639 7.75953 -2.96699e-06 17.3247 -2.96699e-06C26.3043 -2.96699e-06 33.7223 6.95139 34.5519 15.8472L37.6264 12.7361C38.4072 11.9583 39.6273 11.9583 40.4082 12.7361C41.189 13.5139 41.189 14.7292 40.4569 15.5069Z" fill="#555555"/>
</svg>
